<?xml version="1.0" encoding="UTF-8"?>
<svg id="Layer_1" xmlns="http://www.w3.org/2000/svg" version="1.1" viewBox="0 0 20 20">
  <!-- Generator: Adobe Illustrator 29.6.1, SVG Export Plug-In . SVG Version: 2.1.1 Build 9)  -->
  <defs>
    <style>
      .st0 {
        fill: #999;
      }
    </style>
  </defs>
  <path class="st0" d="M8.92,5.69c0-.3.11-.55.32-.76.21-.21.47-.32.77-.32s.55.11.76.32c.21.21.32.47.32.77s-.11.55-.32.76c-.21.21-.47.31-.77.31s-.55-.11-.76-.32c-.21-.21-.32-.47-.32-.77ZM8.92,10c0-.3.11-.55.32-.76.21-.21.47-.32.77-.32s.55.11.76.32c.21.21.32.47.32.77s-.11.55-.32.76c-.21.21-.47.32-.77.32s-.55-.11-.76-.32c-.21-.21-.32-.47-.32-.77ZM8.92,14.3c0-.3.11-.55.32-.76.21-.21.47-.31.77-.31s.55.11.76.32c.21.21.32.47.32.77s-.11.55-.32.76c-.21.21-.47.32-.77.32s-.55-.11-.76-.32c-.21-.21-.32-.47-.32-.77Z"/>
</svg>